<?xml version="1.0" encoding="UTF-8"?>
<svg xmlns="http://www.w3.org/2000/svg"
     viewBox="0 0 1200 700" width="1200" height="700">
  <defs>
    <!-- Dégradés verts doux (non agressifs) -->
    <linearGradient id="leafFill" x1="0" y1="0" x2="1" y2="0">
      <stop offset="0"  stop-color="#88B68F"/>
      <stop offset="1"  stop-color="#6FA974"/>
    </linearGradient>
    <linearGradient id="ribFill" x1="0" y1="0" x2="1" y2="0">
      <stop offset="0" stop-color="#A6D19F"/>
      <stop offset="1" stop-color="#86BF80"/>
    </linearGradient>
    <filter id="softShadow" x="-20%" y="-20%" width="140%" height="140%">
      <feGaussianBlur in="SourceAlpha" stdDeviation="6" result="blur"/>
      <feOffset dx="0" dy="6" result="off"/>
      <feColorMatrix in="off" type="matrix"
        values="0 0 0 0 0
                0 0 0 0 0
                0 0 0 0 0
                0 0 0 .18 0" result="shadow"/>
      <feMerge>
        <feMergeNode in="shadow"/>
        <feMergeNode in="SourceGraphic"/>
      </feMerge>
    </filter>
  </defs>

  <!-- Ombre douce -->
  <g filter="url(#softShadow)">
    <!-- Lame principale de la feuille (forme complète, non coupée) -->
    <path d="M41,345
             C120,110 380,30 700,40
             C950,48 1140,140 1148,260
             C1156,372 950,522 720,598
             C460,684 160,602 64,470
             C18,408 20,374 41,345 Z"
          fill="url(#leafFill)"/>

    <!-- Nervure centrale -->
    <path d="M80,360
             C430,340 770,330 1110,320"
          fill="none" stroke="url(#ribFill)" stroke-width="22" stroke-linecap="round" opacity=".85"/>

    <!-- Découpes naturelles (petites stries) -->
    <g stroke="#5C9B67" stroke-width="3" stroke-linecap="round" opacity=".35">
      <path d="M172,300 C210,275 250,260 300,250"/>
      <path d="M225,410 C270,390 320,378 370,370"/>
      <path d="M310,460 C360,438 420,425 470,420"/>
      <path d="M420,280 C470,260 520,250 580,245"/>
      <path d="M520,510 C585,490 655,480 710,477"/>
      <path d="M650,430 C705,410 760,398 810,392"/>
      <path d="M780,300 C835,280 900,270 965,268"/>
      <path d="M880,470 C940,450 1000,440 1055,437"/>
    </g>

    <!-- Veines obliques (très légères) -->
    <g stroke="#7FB383" stroke-width="2" opacity=".28">
      <path d="M140,330  320,255"/>
      <path d="M200,350  360,300"/>
      <path d="M260,370  420,330"/>
      <path d="M320,390  480,360"/>
      <path d="M380,410  540,390"/>
      <path d="M440,430  600,420"/>
      <path d="M500,450  660,450"/>
      <path d="M560,465  720,480"/>
      <path d="M620,475  780,510"/>
      <path d="M680,470  840,510"/>
      <path d="M740,455  900,505"/>
      <path d="M800,430  960,495"/>
    </g>
  </g>

  <!-- Fond transparent (rien derrière) -->
  <rect x="0" y="0" width="1200" height="700" fill="none"/>
</svg>
